<svg width="2880" height="1400" viewBox="0 0 2880 1400" fill="none" xmlns="http://www.w3.org/2000/svg">
<rect width="2880" height="1400" fill="white"/>
<path d="M0 938.75H48C96 938.75 192 938.75 288 964.455C384 989.199 480 1042.05 576 1015.63C672 989.199 768 888.301 864 900.313C960 912.324 1056 1042.05 1152 1041.33C1248 1042.05 1344 912.324 1440 849.143C1536 785 1632 785 1728 874.607C1824 965.176 1920 1142.95 2016 1195.08C2112 1246.25 2208 1169.37 2304 1118.21C2400 1066.07 2496 1042.05 2592 989.92C2688 938.75 2784 861.875 2832 823.438L2880 785V1400H2832C2784 1400 2688 1400 2592 1400C2496 1400 2400 1400 2304 1400C2208 1400 2112 1400 2016 1400C1920 1400 1824 1400 1728 1400C1632 1400 1536 1400 1440 1400C1344 1400 1248 1400 1152 1400C1056 1400 960 1400 864 1400C768 1400 672 1400 576 1400C480 1400 384 1400 288 1400C192 1400 96 1400 48 1400H0L0 938.75Z" fill="#1793AA"/>
</svg>
